<svg version="1.1" xmlns="http://www.w3.org/2000/svg" xmlns:xlink="http://www.w3.org/1999/xlink" width="458" height="370"><defs></defs><g transform="translate(0,0)"><g><rect fill="#FFFFFF" stroke="none" x="0" y="0" width="458" height="370"></rect></g><g transform="translate(0,0) matrix(1,0,0,1,70,60)"><g><g transform="translate(0,0) scale(1,0.75)"><g><g transform="scale(1,1.3333333333333333)"><path fill="#FFFFFF" stroke="#333333" d="M 100 0 L 100 65.625 Q 100 75 50 75 Q 0 75 0 65.625 L 0 0 Q 0 -9.375 50 -9.375 Q 100 -9.375 100 0" stroke-miterlimit="10" stroke-width="2"></path></g></g><g><g transform="scale(1,1.3333333333333333)"><path fill="rgb(0,0,0)" stroke="#333333" d="M 0 0 Q 0 9.375 50 9.375 Q 100 9.375 100 0 M 0 4.6875 Q 0 14.0625 50 14.0625 Q 100 14.0625 100 4.6875 M 0 9.375 Q 0 18.75 50 18.75 Q 100 18.75 100 9.375" fill-opacity="0" stroke-miterlimit="10"></path></g></g></g></g></g><g transform="scale(1,1) matrix(1,0,0,1,72,60) translate(2,27.5)"><text fill="#000000" stroke="none" font-family="Arial" font-size="18px" font-style="normal" font-weight="bold" text-decoration="none" x="5.5" y="15">Database</text></g><g transform="translate(0,0) matrix(1,0,0,1,190,82.5)"><g><g transform="translate(0,0) scale(0.6,0.3)"><g><g transform="scale(1.6666666666666667,3.3333333333333335)"><path fill="#FFFFFF" stroke="#333333" d="M 0 15 L 15 0 L 15 9 L 45 9 L 45 0 L 60 15 L 45 30 L 45 21 L 15 21 L 15 30 L 0 15 L 0 15 Z" stroke-miterlimit="10" stroke-width="2"></path></g></g></g></g></g><g transform="translate(0,0) matrix(1,0,0,1,270,45)"><g><g transform="translate(0,0) scale(1,1)"><g><g transform="scale(1,1)"><path fill="#FFFFFF" stroke="#333333" d="M 50 0 L 100 50 L 50 100 L 0 50 L 50 0 Z" stroke-miterlimit="10" stroke-width="2"></path></g></g></g></g></g><g transform="scale(1,1) matrix(1,0,0,1,272,45) translate(2,40)"><text fill="#000000" stroke="none" font-family="Arial" font-size="18px" font-style="normal" font-weight="bold" text-decoration="none" x="19.5" y="15">Model</text></g><g transform="translate(0,0) matrix(1,0,0,1,50,250)"><g><g transform="translate(0,0) scale(1,1)"><g><g transform="scale(1,1)"><path fill="#FFFFFF" stroke="#333333" d="M 50 0 L 100 50 L 50 100 L 0 50 L 50 0 Z" stroke-miterlimit="10" stroke-width="2"></path></g></g></g></g></g><g transform="scale(1,1) matrix(1,0,0,1,52,250) translate(2,40)"><text fill="#000000" stroke="none" font-family="Arial" font-size="18px" font-style="normal" font-weight="bold" text-decoration="none" x="2.5" y="15">Controller</text></g><g transform="scale(1,1) matrix(1,0,0,1,170,210) translate(2,0)"><text fill="#000000" stroke="none" font-family="Arial" font-size="18px" font-style="normal" font-weight="bold" text-decoration="none" x="63" y="15">Interaction with </text><text fill="#000000" stroke="none" font-family="Arial" font-size="18px" font-style="normal" font-weight="bold" text-decoration="none" x="84.5" y="36">Data Model</text></g><g transform="translate(0,0) matrix(0.7071067811865474,-0.7071067811865476,0.7071067811865476,0.7071067811865474,133.3119228302507,267.99568901432417)"><g><g transform="translate(0,0) scale(2.1,0.2)"><g><g transform="scale(0.47619047619047616,5)"><path fill="#FFFFFF" stroke="#333333" d="M 0 10 L 10 0 L 10 6 L 200 6 L 200 0 L 210 10 L 200 20 L 200 14 L 10 14 L 10 20 L 0 10 L 0 10 Z" stroke-miterlimit="10" stroke-width="2"></path></g></g></g></g></g></g></svg>